<?xml version="1.0" standalone="no"?>
<!DOCTYPE svg PUBLIC "-//W3C//DTD SVG 20010904//EN"
 "http://www.w3.org/TR/2001/REC-SVG-20010904/DTD/svg10.dtd">
<svg version="1.0" xmlns="http://www.w3.org/2000/svg"
 width="86.000000pt" height="85.000000pt" viewBox="0 0 86.000000 85.000000"
 preserveAspectRatio="xMidYMid meet">

<g transform="translate(0.000000,85.000000) scale(0.100000,-0.100000)"
fill="#000000" stroke="none">
<path d="M333 835 c-78 -22 -125 -49 -178 -102 -52 -52 -89 -123 -99 -190 l-6
-43 376 0 377 0 -6 49 c-13 108 -112 229 -222 270 -75 28 -176 35 -242 16z
m237 -69 c62 -33 110 -77 140 -130 49 -84 47 -86 -77 -87 -60 0 -196 -2 -303
-5 -107 -2 -201 0 -209 5 -11 7 -9 17 8 57 34 77 97 135 186 171 46 19 211 11
255 -11z"/>
<path d="M390 740 c0 -5 7 -10 16 -10 8 0 12 5 9 10 -3 6 -10 10 -16 10 -5 0
-9 -4 -9 -10z"/>
<path d="M270 710 c0 -5 7 -10 15 -10 8 0 15 5 15 10 0 6 -7 10 -15 10 -8 0
-15 -4 -15 -10z"/>
<path d="M560 710 c0 -5 7 -10 15 -10 8 0 15 5 15 10 0 6 -7 10 -15 10 -8 0
-15 -4 -15 -10z"/>
<path d="M467 704 c-8 -8 1 -24 14 -24 5 0 9 7 9 15 0 15 -12 20 -23 9z"/>
<path d="M360 675 c0 -8 5 -15 10 -15 6 0 10 7 10 15 0 8 -4 15 -10 15 -5 0
-10 -7 -10 -15z"/>
<path d="M190 615 c0 -9 5 -15 11 -13 6 2 11 8 11 13 0 5 -5 11 -11 13 -6 2
-11 -4 -11 -13z"/>
<path d="M300 615 c0 -9 5 -15 11 -13 6 2 11 8 11 13 0 5 -5 11 -11 13 -6 2
-11 -4 -11 -13z"/>
<path d="M416 623 c-11 -11 -6 -23 9 -23 8 0 15 4 15 9 0 13 -16 22 -24 14z"/>
<path d="M526 623 c-11 -11 -6 -23 9 -23 8 0 15 4 15 9 0 13 -16 22 -24 14z"/>
<path d="M637 624 c-8 -8 1 -24 14 -24 5 0 9 7 9 15 0 15 -12 20 -23 9z"/>
<path d="M43 425 c-44 -31 -37 -114 12 -137 16 -7 25 -19 25 -34 l0 -23 350
-3 350 -3 0 23 c0 14 13 34 30 49 39 32 42 88 7 121 -23 22 -27 22 -388 22
-308 0 -368 -2 -386 -15z m190 -75 c-37 -35 -48 -40 -89 -40 -66 0 -104 36
-72 68 8 8 46 12 108 12 l95 -1 -42 -39z m154 -2 l43 -42 43 42 c33 33 50 42
77 42 l34 0 -69 -70 c-38 -38 -76 -70 -85 -70 -9 0 -47 32 -85 70 l-69 70 34
0 c27 0 44 -9 77 -42z m401 6 c3 -26 -1 -33 -20 -38 -53 -14 -93 -6 -131 25
-20 17 -37 35 -37 40 0 6 38 9 93 7 l92 -3 3 -31z"/>
<path d="M55 170 c-10 -16 5 -72 28 -104 37 -52 62 -56 344 -56 226 0 262 2
293 18 44 22 80 75 80 118 l0 34 -369 0 c-242 0 -372 -4 -376 -10z m680 -52
c13 -12 -20 -48 -50 -54 -16 -3 -144 -4 -283 -2 -253 3 -254 3 -273 27 -10 12
-16 27 -13 32 6 11 608 8 619 -3z"/>
</g>
</svg>
